<svg xmlns="http://www.w3.org/2000/svg" viewBox="0 0 512 512" width="512" height="512" role="img" aria-labelledby="title">
  <title id="title">Simpaper Presentations</title>
  <!-- Presentations module: sheet in the module colour, gilded edge, a screen with a chart. Original artwork, MPL-2.0. -->
  <defs>
    <linearGradient id="gold" x1="0" y1="0" x2="1" y2="1">
      <stop offset="0" stop-color="#E2C25A"/>
      <stop offset="0.55" stop-color="#C9A227"/>
      <stop offset="1" stop-color="#A9861A"/>
    </linearGradient>
  </defs>
  <path transform="translate(20 10)" fill="url(#gold)" d="M128 58H238C320.85 58 388 125.15 388 208V414C388 429.46 375.46 442 360 442H250C167.15 442 100 374.85 100 292V86C100 70.54 112.54 58 128 58Z"/>
  <path fill="#D5582A" d="M128 58H238C320.85 58 388 125.15 388 208V414C388 429.46 375.46 442 360 442H250C167.15 442 100 374.85 100 292V86C100 70.54 112.54 58 128 58Z"/>
  <rect x="148" y="166" width="192" height="136" rx="14" fill="none" stroke="#FFFFFF" stroke-width="22"/>
  <path fill="none" stroke="#FFFFFF" stroke-width="22" stroke-linecap="round" d="M244 304V346M204 346H284"/>
  <path fill="#FFFFFF" d="M182 246h26v34h-26zM231 212h26v68h-26zM280 230h26v50h-26z"/>
</svg>
