<svg xmlns="http://www.w3.org/2000/svg" viewBox="0 0 512 512" width="512" height="512" role="img" aria-labelledby="title">
  <title id="title">Simpaper</title>
  <!-- Simpaper mark: a sheet of paper with a gilded fore-edge and a gold leaf. Original artwork, MPL-2.0. -->
  <defs>
    <linearGradient id="gold" x1="0" y1="0" x2="1" y2="1">
      <stop offset="0" stop-color="#E2C25A"/>
      <stop offset="0.55" stop-color="#C9A227"/>
      <stop offset="1" stop-color="#A9861A"/>
    </linearGradient>
  </defs>
  <path transform="translate(20 10)" fill="url(#gold)" d="M128 58H238C320.85 58 388 125.15 388 208V414C388 429.46 375.46 442 360 442H250C167.15 442 100 374.85 100 292V86C100 70.54 112.54 58 128 58Z"/>
  <path fill="#1D2B53" d="M128 58H238C320.85 58 388 125.15 388 208V414C388 429.46 375.46 442 360 442H250C167.15 442 100 374.85 100 292V86C100 70.54 112.54 58 128 58Z"/>
  <g transform="translate(248 246) rotate(-56)">
    <path fill="none" stroke="#C9A227" stroke-width="14" stroke-linecap="round" d="M-150 0H-100"/>
    <path fill="url(#gold)" d="M-108 0C-104-52 8-82 132 0C8 82-104 52-108 0Z"/>
    <path fill="none" stroke="#1D2B53" stroke-width="9" stroke-linecap="round" d="M-96 0H104M-50 0L-18-32M-50 0L-18 32M12 0L42-28M12 0L42 28"/>
  </g>
</svg>
